<?xml version="1.0" encoding="UTF-8"?>
<svg xmlns="http://www.w3.org/2000/svg" xmlns:xlink="http://www.w3.org/1999/xlink" width="6581px" height="4462px" viewBox="0 0 6583 4462" version="1.1">
<g id="surface1">
<path style=" stroke:none;fill-rule:nonzero;fill:rgb(0%,0%,0%);fill-opacity:1;" d="M 1730.78125 2.449219 C 1718.773438 6.125 1243.132812 485.703125 1235.78125 501.632812 L 1230.148438 513.394531 L 1230.148438 1807.785156 L 1132.863281 1881.058594 C 1079.195312 1921.246094 1031.65625 1957.515625 1027.246094 1961.4375 C 1010.09375 1976.628906 1011.074219 1966.582031 1009.601562 2141.800781 L 1008.378906 2299.859375 L 969.90625 2300.597656 L 931.1875 2301.332031 L 931.1875 2197.671875 C 931.1875 2101.855469 930.941406 2093.277344 926.777344 2085.4375 C 917.464844 2068.035156 895.164062 2063.871094 878.992188 2076.367188 C 874.582031 2079.800781 818.710938 2131.75 754.75 2191.789062 L 638.351562 2300.839844 L 319.300781 2301.085938 L 0 2301.085938 L 0 2355 L 650.605469 2355 L 662.859375 2348.871094 C 671.433594 2344.707031 704.515625 2315.542969 774.355469 2249.871094 L 873.601562 2156.746094 L 874.824219 2241.78125 C 875.5625 2297.902344 877.03125 2329.023438 878.746094 2332.945312 C 881.933594 2339.804688 890.507812 2348.136719 898.59375 2352.304688 C 902.515625 2354.265625 1642.808594 2355 3735.527344 2355 L 6567.316406 2355 L 6567.316406 2301.085938 L 1372.273438 2301.085938 L 1372.273438 2104.550781 L 1603.113281 1871.992188 C 1729.800781 1744.070312 1834.4375 1639.433594 1835.171875 1639.433594 C 1836.152344 1639.433594 2051.304688 1750.199219 2313.265625 1885.714844 C 2575.464844 2021.230469 2795.277344 2133.710938 2801.890625 2135.671875 C 2812.429688 2138.859375 2912.898438 2139.347656 3588.5 2139.347656 C 4323.648438 2139.105469 4363.835938 2138.859375 4375.351562 2134.9375 C 4382.214844 2132.488281 4438.328125 2098.179688 4500.328125 2058.726562 C 4562.324219 2019.027344 4718.175781 1920.511719 4846.582031 1839.890625 C 5046.785156 1713.929688 5080.605469 1693.34375 5084.035156 1696.039062 C 5085.996094 1698 5160 1780.09375 5248.21875 1878.609375 C 5359.226562 2002.851562 5411.421875 2059.460938 5417.546875 2062.644531 C 5425.878906 2066.8125 5435.925781 2067.058594 5543.746094 2067.792969 L 5660.636719 2068.527344 L 5660.636719 2148.90625 C 5660.636719 2228.304688 5660.636719 2229.285156 5666.269531 2237.371094 C 5669.210938 2241.78125 5674.847656 2247.910156 5678.523438 2250.605469 C 5685.140625 2255.503906 5688.324219 2255.75 5759.878906 2255.75 C 5831.433594 2255.75 5834.621094 2255.503906 5841.234375 2250.605469 C 5844.910156 2247.910156 5850.546875 2242.027344 5853.242188 2237.863281 C 5858.390625 2230.511719 5858.632812 2226.34375 5860.351562 2149.394531 L 5862.308594 2068.527344 L 5945.136719 2067.792969 L 6028.207031 2067.058594 L 6035.558594 2059.703125 C 6045.117188 2050.148438 6047.324219 2037.648438 6041.929688 2026.132812 C 6038.992188 2020.003906 6031.394531 2013.390625 6015.222656 2002.851562 C 6002.722656 1994.765625 5825.0625 1879.589844 5620.203125 1746.765625 L 5247.480469 1505.632812 L 4553.011719 1136.085938 C 4170.980469 932.6875 3857.074219 765.558594 3855.601562 764.332031 C 3854.378906 763.109375 3846.535156 760.65625 3838.695312 758.453125 C 3825.953125 755.265625 3789.441406 754.777344 3555.417969 754.777344 C 3382.902344 754.777344 3281.941406 755.757812 3273.613281 757.226562 C 3263.808594 759.1875 3203.28125 789.820312 3032.972656 879.753906 L 2805.566406 999.832031 L 2494.601562 999.832031 L 2494.601562 704.539062 C 2494.601562 415.617188 2494.601562 409.246094 2489.699219 396.257812 C 2487.003906 389.152344 2481.121094 379.839844 2476.957031 375.671875 C 2472.054688 371.015625 2328.457031 295.292969 2114.773438 185.019531 C 1740.585938 -8.578125 1751.121094 -3.675781 1730.78125 2.449219 Z M 2107.175781 243.585938 L 2438.238281 414.882812 L 2438.238281 1015.761719 L 2122.859375 1194.410156 C 1949.367188 1292.675781 1799.640625 1378.9375 1789.839844 1386.042969 C 1780.28125 1393.394531 1771.707031 1399.277344 1770.96875 1399.277344 C 1769.988281 1399.277344 1769.253906 1100.304688 1769.253906 734.925781 C 1769.253906 172.765625 1769.746094 70.820312 1772.683594 71.558594 C 1774.402344 72.046875 1925.105469 149.484375 2107.175781 243.585938 Z M 1715.34375 767.765625 L 1715.34375 1442.40625 L 1505.828125 1599.976562 C 1390.652344 1686.726562 1294.105469 1759.265625 1291.410156 1761.226562 L 1286.507812 1764.65625 L 1286.507812 523.195312 L 1499.945312 308.035156 C 1617.324219 189.917969 1713.875 93.121094 1714.363281 93.121094 C 1714.855469 93.121094 1715.34375 396.746094 1715.34375 767.765625 Z M 4470.921875 1152.257812 L 5116.625 1493.625 L 4702.984375 1494.359375 L 4289.09375 1494.847656 L 3861.730469 1253.222656 C 3626.726562 1120.15625 3429.460938 1009.144531 3423.335938 1006.203125 C 3412.308594 1001.058594 3409.859375 1001.058594 3167.261719 999.832031 L 2922.210938 998.609375 L 3102.320312 904.996094 L 3282.433594 811.382812 L 3553.703125 811.382812 L 3824.972656 811.140625 Z M 3811.984375 1285.816406 C 4215.335938 1511.265625 4222.933594 1515.679688 4213.375 1517.394531 C 4208.230469 1518.375 4068.304688 1534.058594 3902.40625 1552.683594 L 3600.996094 1586.253906 L 2754.597656 1484.066406 C 2289.003906 1427.949219 1907.707031 1381.632812 1907.21875 1381.140625 C 1906.726562 1380.898438 2035.378906 1307.625 2192.699219 1218.425781 L 2478.671875 1056.441406 L 2939.855469 1056.195312 L 3400.792969 1056.195312 Z M 2718.820312 1530.625 L 3588.746094 1639.921875 L 3629.175781 1635.757812 C 3678.1875 1630.855469 3943.085938 1597.773438 4148.925781 1570.816406 L 4300.121094 1551.210938 L 5216.117188 1551.210938 L 5304.332031 1608.308594 C 5352.609375 1639.675781 5513.117188 1743.582031 5660.636719 1839.152344 L 5928.964844 2013.144531 L 5878.238281 2014.371094 L 5827.511719 2015.59375 L 5818.691406 2024.171875 C 5814.035156 2028.828125 5808.890625 2036.425781 5807.664062 2041.324219 C 5806.195312 2045.980469 5805.214844 2083.476562 5805.214844 2125.136719 L 5805.214844 2200.613281 L 5714.546875 2200.613281 L 5714.546875 2121.460938 C 5714.546875 2033.484375 5714.054688 2031.035156 5697.636719 2020.003906 L 5689.304688 2014.371094 L 5443.765625 2014.371094 L 5277.132812 1827.636719 C 5104.863281 1635.019531 5102.414062 1632.324219 5084.28125 1632.082031 C 5071.78125 1632.082031 5095.308594 1617.378906 4628.976562 1910.957031 C 4574.332031 1945.261719 4522.136719 1978.347656 4512.578125 1984.71875 C 4503.269531 1990.84375 4464.796875 2015.351562 4427.058594 2039.367188 L 4358.6875 2082.984375 L 2815.613281 2082.984375 L 2331.640625 1832.78125 C 1969.460938 1645.558594 1844.730469 1582.089844 1836.886719 1581.355469 C 1831.007812 1580.617188 1822.183594 1581.355469 1817.53125 1582.824219 C 1805.523438 1586.746094 1332.578125 2062.644531 1323.265625 2080.042969 L 1317.140625 2091.316406 L 1316.402344 2196.203125 L 1315.667969 2301.085938 L 1190.203125 2300.597656 L 1064.738281 2299.859375 L 1064.003906 2151.355469 L 1063.511719 2002.851562 L 1450.691406 1711.234375 C 1745.484375 1489.210938 1839.339844 1419.859375 1843.503906 1420.597656 C 1846.445312 1421.085938 2240.484375 1470.585938 2718.820312 1530.625 Z M 2718.820312 1530.625 "/>
<path style=" stroke:none;fill-rule:nonzero;fill:rgb(0%,0%,0%);fill-opacity:1;" d="M 22.054688 2772.820312 L 22.054688 2820.609375 L 382.277344 2820.609375 L 382.277344 3817.988281 L 477.847656 3817.988281 L 477.847656 2820.609375 L 838.066406 2820.609375 L 838.066406 2725.035156 L 22.054688 2725.035156 Z M 22.054688 2772.820312 "/>
<path style=" stroke:none;fill-rule:nonzero;fill:rgb(0%,0%,0%);fill-opacity:1;" d="M 941.480469 3270.042969 C 810.378906 3569.746094 703.292969 3815.539062 703.292969 3816.519531 C 703.292969 3818.726562 739.066406 3818.234375 756.957031 3815.539062 C 778.519531 3812.597656 801.066406 3801.082031 814.296875 3786.132812 C 823.609375 3775.839844 831.695312 3758.929688 871.394531 3666.300781 L 917.710938 3558.230469 L 1520.773438 3558.230469 L 1542.339844 3607.730469 C 1609.726562 3762.605469 1615.117188 3773.632812 1627.617188 3787.359375 C 1647.710938 3809.414062 1672.460938 3817.746094 1717.550781 3817.988281 C 1734.949219 3817.988281 1735.4375 3817.746094 1734.210938 3812.597656 C 1732.988281 3806.472656 1600.660156 3502.601562 1443.828125 3145.308594 C 1391.144531 3025.230469 1328.410156 2881.871094 1304.398438 2826.734375 L 1260.53125 2726.261719 L 1220.101562 2725.523438 L 1179.421875 2725.035156 Z M 1229.167969 2886.28125 C 1231.125 2893.632812 1287.976562 3025.71875 1355.367188 3180.105469 C 1422.753906 3334.492188 1477.402344 3461.1875 1476.910156 3461.675781 C 1476.421875 3462.167969 1360.269531 3462.410156 1218.628906 3462.167969 L 961.328125 3461.433594 L 1085.8125 3175.941406 C 1197.308594 2920.589844 1210.789062 2888 1214.707031 2867.414062 L 1219.121094 2844.132812 L 1222.058594 2858.835938 C 1223.773438 2866.679688 1226.960938 2879.175781 1229.167969 2886.28125 Z M 1229.167969 2886.28125 "/>
<path style=" stroke:none;fill-rule:nonzero;fill:rgb(0%,0%,0%);fill-opacity:1;" d="M 1595.269531 2772.820312 L 1595.269531 2820.609375 L 1953.042969 2820.609375 L 1953.53125 3318.5625 L 1954.265625 3816.765625 L 2001.5625 3817.5 L 2048.609375 3817.988281 L 2048.609375 2820.609375 L 2408.832031 2820.609375 L 2408.832031 2799.289062 C 2408.832031 2787.769531 2409.566406 2778.703125 2410.304688 2779.683594 C 2411.285156 2780.417969 2518.613281 3014.203125 2648.980469 3298.957031 L 2885.945312 3816.765625 L 2925.398438 3817.5 L 2964.847656 3817.988281 L 2968.523438 3811.128906 C 2970.484375 3807.207031 3019.25 3696.195312 3076.59375 3564.109375 C 3134.179688 3432.269531 3182.699219 3321.503906 3184.414062 3318.074219 C 3187.355469 3312.683594 3187.597656 3314.152344 3187.597656 3333.023438 C 3187.84375 3371.25 3179.757812 3351.402344 3310.613281 3638.363281 L 3392.460938 3817.988281 L 3471.609375 3817.988281 L 3474.550781 3811.128906 C 3485.089844 3788.828125 3946.027344 2732.878906 3947.007812 2729.199219 C 3948.230469 2725.523438 3945.78125 2725.035156 3921.277344 2725.035156 C 3879.128906 2725.035156 3854.378906 2734.835938 3834.527344 2759.589844 C 3826.933594 2769.144531 3448.820312 3631.011719 3440.734375 3657.476562 C 3438.285156 3665.5625 3435.34375 3678.308594 3434.363281 3685.660156 L 3432.402344 3699.136719 L 3427.011719 3673.40625 C 3421.867188 3649.636719 3413.289062 3629.539062 3324.335938 3433.742188 L 3227.296875 3220.050781 L 3334.136719 2975.730469 C 3392.949219 2841.191406 3441.46875 2729.691406 3442.449219 2727.730469 C 3443.429688 2725.035156 3438.039062 2724.546875 3410.839844 2725.523438 C 3380.207031 2726.261719 3376.777344 2726.996094 3361.585938 2734.101562 C 3344.675781 2741.945312 3328.257812 2756.402344 3321.886719 2768.65625 C 3315.269531 2781.644531 2942.550781 3635.175781 2937.402344 3648.902344 C 2934.953125 3656.253906 2931.277344 3669.976562 2929.5625 3679.53125 C 2926.132812 3698.648438 2925.640625 3698.15625 2919.761719 3668.503906 C 2916.085938 3650.125 2891.824219 3595.96875 2719.554688 3223.726562 C 2611.488281 2990.433594 2519.59375 2791.691406 2514.9375 2782.132812 C 2504.15625 2759.34375 2489.210938 2743.90625 2468.136719 2734.101562 L 2451.714844 2726.261719 L 2023.617188 2725.523438 L 1595.269531 2725.035156 Z M 1595.269531 2772.820312 "/>
<path style=" stroke:none;fill-rule:nonzero;fill:rgb(0%,0%,0%);fill-opacity:1;" d="M 4013.90625 3271.511719 L 4013.90625 3817.988281 L 4339.332031 3817.5 L 4664.511719 3816.765625 L 4665.246094 3769.46875 L 4665.734375 3722.417969 L 4109.472656 3722.417969 L 4109.472656 3313.171875 L 4557.914062 3313.171875 L 4557.914062 3217.601562 L 4109.472656 3217.601562 L 4109.472656 2820.609375 L 4665.734375 2820.609375 L 4665.734375 2725.035156 L 4013.90625 2725.035156 Z M 4013.90625 3271.511719 "/>
<path style=" stroke:none;fill-rule:nonzero;fill:rgb(0%,0%,0%);fill-opacity:1;" d="M 4876.96875 3270.777344 L 4877.703125 3816.765625 L 5203.128906 3817.5 L 5528.308594 3817.988281 L 5528.308594 3722.417969 L 5250.914062 3721.925781 L 4973.273438 3721.191406 L 4972.535156 3517.058594 L 4972.046875 3313.171875 L 5422.9375 3313.171875 L 5422.9375 3217.601562 L 4972.046875 3217.601562 L 4972.046875 2820.609375 L 5528.308594 2820.609375 L 5528.308594 2725.035156 L 4876.476562 2725.035156 Z M 4876.96875 3270.777344 "/>
<path style=" stroke:none;fill-rule:nonzero;fill:rgb(0%,0%,0%);fill-opacity:1;" d="M 5756.203125 3271.511719 L 5756.203125 3817.988281 L 5849.324219 3817.988281 L 5849.8125 3577.097656 L 5850.546875 3336.453125 L 5960.820312 3335.71875 L 6071.09375 3335.226562 L 6237.480469 3557.25 C 6329.375 3679.777344 6408.523438 3782.945312 6413.917969 3787.359375 C 6438.175781 3807.207031 6463.417969 3814.804688 6513.40625 3817.007812 C 6545.261719 3818.726562 6548.449219 3818.480469 6546.976562 3814.804688 C 6546.242188 3812.597656 6465.375 3704.285156 6367.355469 3574.15625 C 6269.582031 3443.789062 6189.941406 3336.941406 6190.429688 3336.699219 C 6190.675781 3336.207031 6198.519531 3334.492188 6207.585938 3333.023438 C 6322.023438 3313.417969 6414.160156 3214.90625 6438.910156 3086.25 C 6443.8125 3060.761719 6444.546875 3006.605469 6440.136719 2982.101562 C 6429.355469 2918.140625 6399.949219 2861.285156 6354.371094 2815.460938 C 6306.828125 2768.164062 6248.753906 2738.511719 6184.304688 2728.957031 C 6162.742188 2725.523438 6126.71875 2725.035156 5957.390625 2725.035156 L 5756.203125 2725.035156 Z M 6179.648438 2824.527344 C 6266.886719 2842.417969 6335.253906 2916.425781 6347.019531 3005.378906 C 6359.023438 3096.785156 6304.871094 3188.683594 6218.121094 3224.707031 C 6182.835938 3239.410156 6180.628906 3239.65625 6007.132812 3239.65625 L 5849.324219 3239.65625 L 5849.324219 2820.609375 L 6004.929688 2820.609375 C 6137.5 2820.609375 6163.476562 2821.097656 6179.648438 2824.527344 Z M 6179.648438 2824.527344 "/>
<path style=" stroke:none;fill-rule:nonzero;fill:rgb(0%,0%,0%);fill-opacity:1;" d="M 4742.925781 4185.085938 C 4717.929688 4193.417969 4701.511719 4203.953125 4683.625 4223.3125 C 4657.648438 4251.003906 4645.886719 4281.636719 4645.886719 4320.847656 C 4645.886719 4345.84375 4650.296875 4363.488281 4662.304688 4386.523438 C 4673.820312 4408.578125 4687.300781 4423.28125 4708.128906 4437.496094 C 4733.613281 4454.402344 4756.160156 4461.265625 4787.035156 4461.019531 C 4828.449219 4461.019531 4858.589844 4448.523438 4887.503906 4419.605469 C 4943.375 4363.976562 4943.132812 4274.53125 4887.261719 4218.902344 C 4850.257812 4181.65625 4792.671875 4168.175781 4742.925781 4185.085938 Z M 4817.667969 4205.425781 C 4846.582031 4212.042969 4877.949219 4238.019531 4892.652344 4267.667969 C 4915.441406 4313.742188 4906.863281 4366.183594 4870.597656 4402.207031 C 4852.953125 4419.851562 4836.78125 4429.164062 4814.96875 4434.308594 C 4774.292969 4443.867188 4734.59375 4432.59375 4704.945312 4403.429688 C 4657.160156 4356.378906 4657.648438 4280.167969 4706.414062 4234.832031 C 4737.78125 4205.425781 4774.292969 4195.621094 4817.667969 4205.425781 Z M 4817.667969 4205.425781 "/>
<path style=" stroke:none;fill-rule:nonzero;fill:rgb(0%,0%,0%);fill-opacity:1;" d="M 34.308594 4320.601562 L 34.308594 4460.285156 L 46.070312 4459.550781 L 57.585938 4458.8125 L 58.320312 4319.621094 L 58.8125 4180.675781 L 34.308594 4180.675781 Z M 34.308594 4320.601562 "/>
<path style=" stroke:none;fill-rule:nonzero;fill:rgb(0%,0%,0%);fill-opacity:1;" d="M 436.1875 4320.355469 L 436.1875 4460.039062 L 460.691406 4460.039062 L 460.9375 4335.550781 C 460.9375 4267.179688 461.671875 4213.023438 462.652344 4215.226562 C 463.632812 4217.1875 502.351562 4273.304688 548.664062 4339.472656 L 632.960938 4460.039062 L 656.730469 4460.039062 L 656.730469 4180.675781 L 632.226562 4180.675781 L 631.980469 4298.792969 C 631.980469 4391.179688 631.246094 4416.175781 629.042969 4412.742188 C 603.3125 4374.023438 473.679688 4190.230469 469.023438 4186.066406 C 464.125 4181.898438 459.957031 4180.675781 449.421875 4180.675781 L 436.1875 4180.675781 Z M 436.1875 4320.355469 "/>
<path style=" stroke:none;fill-rule:nonzero;fill:rgb(0%,0%,0%);fill-opacity:1;" d="M 999.800781 4192.925781 L 999.800781 4205.179688 L 1090.46875 4205.179688 L 1090.46875 4460.039062 L 1114.972656 4460.039062 L 1114.972656 4205.179688 L 1205.640625 4205.179688 L 1205.640625 4180.675781 L 999.800781 4180.675781 Z M 999.800781 4192.925781 "/>
<path style=" stroke:none;fill-rule:nonzero;fill:rgb(0%,0%,0%);fill-opacity:1;" d="M 1548.710938 4320.355469 L 1548.710938 4460.039062 L 1715.34375 4460.039062 L 1715.34375 4435.535156 L 1573.214844 4435.535156 L 1573.214844 4330.160156 L 1688.386719 4330.160156 L 1688.386719 4305.652344 L 1573.214844 4305.652344 L 1573.214844 4205.179688 L 1715.34375 4205.179688 L 1715.34375 4180.675781 L 1548.710938 4180.675781 Z M 1548.710938 4320.355469 "/>
<path style=" stroke:none;fill-rule:nonzero;fill:rgb(0%,0%,0%);fill-opacity:1;" d="M 2075.566406 4320.355469 L 2075.566406 4460.039062 L 2100.070312 4460.039062 L 2100.070312 4337.511719 L 2157.65625 4337.511719 L 2199.804688 4393.875 C 2223.085938 4424.75 2244.648438 4451.707031 2247.589844 4453.667969 C 2250.777344 4455.628906 2258.617188 4458.078125 2265.234375 4459.058594 C 2275.527344 4460.53125 2276.996094 4460.285156 2275.769531 4456.855469 C 2275.035156 4454.648438 2254.695312 4426.957031 2230.925781 4395.097656 C 2207.15625 4363.488281 2188.042969 4337.019531 2188.535156 4336.777344 C 2189.023438 4336.285156 2194.171875 4334.570312 2199.804688 4333.101562 C 2230.925781 4324.03125 2255.675781 4283.84375 2251.019531 4249.535156 C 2248.570312 4231.15625 2235.339844 4207.875 2221.371094 4197.339844 C 2201.765625 4182.390625 2192.453125 4180.675781 2130.210938 4180.675781 L 2075.566406 4180.675781 Z M 2199.804688 4212.53125 C 2237.054688 4233.851562 2235.582031 4286.050781 2197.355469 4306.390625 C 2188.042969 4311.042969 2182.652344 4311.78125 2143.691406 4312.515625 L 2100.070312 4313.496094 L 2100.070312 4205.179688 L 2187.0625 4205.179688 Z M 2199.804688 4212.53125 "/>
<path style=" stroke:none;fill-rule:nonzero;fill:rgb(0%,0%,0%);fill-opacity:1;" d="M 2620.066406 4319.621094 L 2620.800781 4458.8125 L 2632.316406 4459.550781 L 2644.082031 4460.285156 L 2644.570312 4337.019531 L 2645.304688 4213.757812 L 2731.074219 4336.285156 L 2816.839844 4458.8125 L 2828.601562 4459.550781 L 2840.121094 4460.285156 L 2840.121094 4180.675781 L 2815.613281 4180.675781 L 2815.613281 4298.792969 C 2815.371094 4388.238281 2814.878906 4415.929688 2812.675781 4412.253906 C 2811.203125 4409.558594 2774.691406 4357.117188 2731.808594 4295.605469 C 2677.898438 4218.167969 2652.167969 4183.125 2648.492188 4182.144531 C 2645.304688 4181.410156 2637.707031 4180.675781 2631.09375 4180.675781 L 2619.574219 4180.675781 Z M 2620.066406 4319.621094 "/>
<path style=" stroke:none;fill-rule:nonzero;fill:rgb(0%,0%,0%);fill-opacity:1;" d="M 3291.5 4184.839844 C 3285.128906 4197.09375 3173.386719 4454.894531 3173.386719 4457.589844 C 3173.386719 4461.265625 3189.316406 4458.8125 3196.910156 4453.914062 C 3199.851562 4451.953125 3206.957031 4438.71875 3213.820312 4422.300781 L 3225.828125 4393.875 L 3380.941406 4393.875 L 3387.804688 4410.539062 C 3403.488281 4447.785156 3407.898438 4454.648438 3417.699219 4457.34375 C 3429.953125 4460.773438 3433.136719 4460.773438 3433.136719 4456.855469 C 3433.136719 4455.382812 3406.429688 4392.648438 3373.589844 4317.90625 L 3314.289062 4181.898438 L 3303.996094 4181.164062 C 3296.15625 4180.675781 3293.214844 4181.410156 3291.5 4184.839844 Z M 3305.710938 4219.882812 C 3305.710938 4221.109375 3319.925781 4255.171875 3337.570312 4295.117188 L 3369.179688 4368.144531 L 3336.34375 4368.878906 C 3318.210938 4369.125 3288.558594 4369.125 3270.425781 4368.878906 L 3237.589844 4368.144531 L 3269.199219 4295.851562 C 3286.597656 4256.152344 3300.8125 4222.089844 3300.8125 4220.375 C 3300.8125 4216.941406 3305.710938 4216.207031 3305.710938 4219.882812 Z M 3305.710938 4219.882812 "/>
<path style=" stroke:none;fill-rule:nonzero;fill:rgb(0%,0%,0%);fill-opacity:1;" d="M 3702.691406 4192.925781 L 3702.691406 4205.179688 L 3793.359375 4205.179688 L 3793.359375 4460.039062 L 3817.867188 4460.039062 L 3817.867188 4205.179688 L 3908.535156 4205.179688 L 3908.535156 4180.675781 L 3702.691406 4180.675781 Z M 3702.691406 4192.925781 "/>
<path style=" stroke:none;fill-rule:nonzero;fill:rgb(0%,0%,0%);fill-opacity:1;" d="M 4258.953125 4320.355469 L 4258.953125 4460.039062 L 4283.457031 4460.039062 L 4283.457031 4180.675781 L 4258.953125 4180.675781 Z M 4258.953125 4320.355469 "/>
<path style=" stroke:none;fill-rule:nonzero;fill:rgb(0%,0%,0%);fill-opacity:1;" d="M 5285.710938 4320.601562 L 5285.710938 4460.285156 L 5297.472656 4459.550781 L 5308.988281 4458.8125 L 5310.214844 4337.511719 L 5311.441406 4216.207031 L 5396.226562 4337.511719 L 5481.015625 4458.8125 L 5505.027344 4458.8125 L 5505.765625 4319.621094 L 5506.253906 4180.675781 L 5481.75 4180.675781 L 5481.257812 4298.300781 L 5480.523438 4416.175781 L 5400.148438 4300.753906 C 5355.792969 4237.28125 5317.566406 4184.351562 5315.117188 4183.125 C 5312.664062 4181.65625 5305.070312 4180.675781 5298.207031 4180.675781 L 5285.710938 4180.675781 Z M 5285.710938 4320.601562 "/>
<path style=" stroke:none;fill-rule:nonzero;fill:rgb(0%,0%,0%);fill-opacity:1;" d="M 5954.9375 4186.066406 C 5953.714844 4189.25 5927.003906 4250.027344 5895.882812 4321.582031 C 5864.515625 4393.140625 5838.296875 4453.667969 5837.558594 4456.117188 C 5836.335938 4460.285156 5837.316406 4460.53125 5845.890625 4459.304688 C 5860.839844 4456.855469 5865.984375 4450.972656 5878.484375 4422.054688 L 5890 4395.097656 L 5967.4375 4394.363281 L 6044.871094 4393.875 L 6056.632812 4420.832031 C 6063.003906 4435.535156 6070.601562 4449.992188 6073.296875 4452.441406 C 6076.238281 4455.136719 6083.34375 4458.078125 6089.226562 4459.058594 C 6099.027344 4460.53125 6100.007812 4460.285156 6098.539062 4456.609375 C 6097.558594 4454.15625 6070.113281 4391.179688 6037.519531 4316.4375 L 5977.972656 4180.675781 L 5967.4375 4180.675781 C 5958.859375 4180.675781 5956.65625 4181.65625 5954.9375 4186.066406 Z M 6003.457031 4299.035156 C 6019.632812 4336.53125 6033.109375 4367.652344 6033.109375 4368.144531 C 6033.109375 4368.878906 6003.949219 4369.367188 5968.171875 4369.367188 C 5932.394531 4369.367188 5903.234375 4368.386719 5903.234375 4367.164062 C 5903.234375 4366.183594 5916.957031 4333.835938 5933.621094 4295.605469 C 5950.28125 4257.378906 5964.742188 4223.3125 5965.722656 4219.882812 C 5967.679688 4213.757812 5967.679688 4213.757812 5970.621094 4222.335938 C 5972.335938 4226.988281 5987.039062 4261.542969 6003.457031 4299.035156 Z M 6003.457031 4299.035156 "/>
<path style=" stroke:none;fill-rule:nonzero;fill:rgb(0%,0%,0%);fill-opacity:1;" d="M 6430.089844 4320.355469 L 6430.089844 4460.039062 L 6582.019531 4460.039062 L 6582.019531 4435.535156 L 6454.59375 4435.535156 L 6454.59375 4180.675781 L 6430.089844 4180.675781 Z M 6430.089844 4320.355469 "/>
</g>
</svg>
